<svg width="13" height="13" viewBox="0 0 13 13" fill="none" xmlns="http://www.w3.org/2000/svg">
<path d="M11.0323 3.5014C11.1953 3.5014 11.3518 3.5014 11.5089 3.5014C11.8394 3.49979 12.0616 3.30183 12.0649 3.00675C12.0682 2.71168 11.8415 2.50245 11.5062 2.50191C10.9083 2.50191 10.3105 2.50191 9.71646 2.50191H9.53493C9.53493 2.33185 9.53493 2.17358 9.53493 2.01532C9.52352 1.42517 9.25938 0.98203 8.7436 0.686959C8.53514 0.566823 8.29801 0.503676 8.05662 0.504015C7.01692 0.500259 5.97775 0.49704 4.93805 0.504551C4.13911 0.510452 3.47713 1.1698 3.46028 1.96006C3.45648 2.13388 3.46028 2.3077 3.46028 2.50138H3.29234C2.67638 2.50138 2.06168 2.50138 1.44826 2.50138C1.34788 2.49673 1.24848 2.52271 1.16359 2.5758C1.07869 2.62888 1.01242 2.70649 0.973786 2.79806C0.931289 2.88298 0.915713 2.97857 0.929093 3.07237C0.942472 3.16616 0.984186 3.25379 1.04879 3.32382C1.09605 3.3816 1.15609 3.42793 1.22429 3.45927C1.2925 3.49061 1.36706 3.50612 1.44228 3.50462C1.61294 3.50462 1.7836 3.50462 1.96675 3.50462C1.98251 3.77287 1.99773 4.03092 2.01186 4.2879C2.10679 6.00468 2.20173 7.71985 2.29666 9.4334C2.32709 9.98116 2.35535 10.5289 2.3934 11.0767C2.4521 11.9109 3.09614 12.4995 3.94508 12.5C5.64477 12.5 7.3441 12.5 9.04307 12.5C9.9094 12.5 10.5513 11.8922 10.5991 11.0381C10.7375 8.5752 10.8772 6.11198 11.0181 3.6484C11.0209 3.60226 11.0268 3.55827 11.0323 3.5014ZM6.51092 2.50138C5.87829 2.50138 5.24566 2.50138 4.61303 2.50138C4.51194 2.50138 4.46303 2.48046 4.47173 2.36886C4.48042 2.25727 4.47173 2.12798 4.47173 2.0078C4.48423 1.70844 4.67608 1.50672 4.97718 1.50511C5.98917 1.5001 7.00134 1.5001 8.01369 1.50511C8.31479 1.50511 8.5061 1.70791 8.51697 2.0078C8.52023 2.10598 8.51697 2.20416 8.51697 2.30234C8.51697 2.49923 8.51697 2.49977 8.32402 2.49977L6.51092 2.50138ZM5.99134 7.49076C5.99134 7.01329 5.99134 6.53581 5.99134 6.05833C5.99134 5.91669 6.01417 5.78311 6.11471 5.67259C6.18063 5.59807 6.2674 5.54446 6.36411 5.5185C6.46081 5.49253 6.56314 5.49537 6.65821 5.52666C6.76054 5.55965 6.84922 5.62459 6.91089 5.71169C6.97255 5.79878 7.00385 5.90331 7.00007 6.00951C7.00496 6.42422 7.00007 6.83892 7.00007 7.25417C7.00007 7.82071 7.00007 8.38724 7.00007 8.95378C7.00007 9.17213 6.92235 9.34757 6.71582 9.44628C6.36961 9.61206 5.99732 9.37385 5.99188 8.97685C5.98645 8.48113 5.99134 7.98595 5.99134 7.49076ZM8.01641 7.50847C8.01641 7.01758 8.01641 6.52669 8.01641 6.03633C8.01641 5.72302 8.2262 5.50359 8.5186 5.49984C8.811 5.49608 9.02513 5.71444 9.02568 6.02828C9.02568 7.01007 9.02441 7.99185 9.02187 8.97363C9.021 9.06683 8.9985 9.1586 8.95611 9.24188C8.90417 9.33695 8.82143 9.41208 8.72113 9.45527C8.62083 9.49845 8.50876 9.50719 8.40283 9.48008C8.29133 9.45524 8.19196 9.39312 8.12154 9.30425C8.05112 9.21538 8.01398 9.10521 8.01641 8.99241C8.01369 8.49937 8.01641 8.00365 8.01641 7.50847ZM3.96682 7.50364C3.96682 6.99934 3.96247 6.49503 3.96682 5.99127C3.96621 5.92617 3.9786 5.86159 4.00328 5.80122C4.02795 5.74084 4.06444 5.68586 4.11064 5.6394C4.20395 5.54558 4.3312 5.4922 4.46439 5.49099C4.53034 5.49039 4.59576 5.50262 4.65692 5.52698C4.71808 5.55133 4.77378 5.58735 4.82084 5.63295C4.91589 5.72506 4.96997 5.85067 4.9712 5.98215C4.97591 6.99075 4.97591 7.99918 4.9712 9.00743C4.97353 9.10008 4.94784 9.19131 4.89741 9.26947C4.84697 9.34764 4.77408 9.4092 4.68804 9.44628C4.34672 9.60723 3.97008 9.37493 3.96519 8.98973C3.96138 8.49401 3.96682 7.99882 3.96682 7.50364Z" fill="#EC2D44"/>
</svg>
